<svg xmlns="http://www.w3.org/2000/svg" xmlns:xlink="http://www.w3.org/1999/xlink" id="Layer_1" viewBox="0 0 64 64"><linearGradient id="lg1"><stop offset="0" stop-color="#ffddf3"/><stop offset="1" stop-color="#7900e9"/></linearGradient><linearGradient id="SVGID_1_" gradientUnits="userSpaceOnUse" x1="34.016" x2="50" xlink:href="#lg1" y1="41.991" y2="41.991"/><linearGradient id="SVGID_2_" gradientUnits="userSpaceOnUse" x1="14" x2="34.04" xlink:href="#lg1" y1="40.996" y2="40.996"/><path d="m42.028 49.975c-1.092 0-2.149-.211-3.144-.629-.804-.32-1.521-.762-2.164-1.328-2.745-2.417-3.503-6.521-1.801-9.757.822-1.561 2.198-2.825 3.873-3.559 1.031-.456 2.159-.696 3.266-.696.641 0 1.277.078 1.895.233 3.504.879 6.047 4.142 6.047 7.761 0 2.592-1.262 5.033-3.375 6.527-1.333.949-2.921 1.448-4.597 1.448z" fill="url(#SVGID_1_)"/><path d="m28.014 50.001c-4.153 0-8.329-.415-12.411-1.232-.926-.188-1.603-1.013-1.603-1.959v-2.47c0-3.995 2.071-7.833 5.405-10.017 2.229-1.473 5.021-2.277 8.082-2.333.123.004.245.007.369.007s.249-.002.377-.007c1.938.032 3.934.39 5.773 1.036.011.004.022.008.033.012-1.084.951-1.99 2.089-2.659 3.359-2.286 4.345-1.614 9.733 1.51 13.413-1.622.128-3.252.191-4.876.191z" fill="url(#SVGID_2_)"/><g fill="#541491"><path d="m12 47.808c-.553 0-1-.448-1-1v-2.465c0-4.991 2.589-9.793 6.757-12.534 4.702-3.091 11.31-3.706 17.243-1.608.521.184.794.755.609 1.276-.184.52-.752.794-1.275.609-5.274-1.865-11.352-1.319-15.479 1.394-3.611 2.375-5.855 6.538-5.855 10.863v2.465c0 .552-.447 1-1 1z"/><path d="m27.991 53.003c-4.343 0-8.68-.431-12.975-1.293-.542-.109-.893-.636-.784-1.177.109-.542.637-.891 1.177-.784 7.451 1.494 15.033 1.654 22.54.473.544-.086 1.057.286 1.144.833.085.545-.287 1.057-.833 1.143-3.413.537-6.843.805-10.269.805z"/><path d="m15.214 51.73c-.065 0-.132-.006-.198-.02-2.327-.467-4.016-2.528-4.016-4.902 0-.552.447-1 1-1s1 .448 1 1c0 1.424 1.014 2.661 2.41 2.941.541.109.892.636.783 1.177-.095.476-.512.804-.979.804z"/><path d="m46 43h-8c-.553 0-1-.448-1-1s.447-1 1-1h8c.553 0 1 .448 1 1s-.447 1-1 1z"/><path d="m42 47c-.553 0-1-.448-1-1v-8c0-.552.447-1 1-1s1 .448 1 1v8c0 .552-.447 1-1 1z"/><path d="m27.94 30.993c-.001 0-.001 0 0 0-.897 0-1.787-.123-2.646-.363-4.929-1.382-8.06-6.416-7.127-11.458.915-4.948 5.647-8.598 10.759-8.128 5.088.466 9.074 4.84 9.074 9.956 0 1.221-.219 2.416-.649 3.551-1.464 3.853-5.246 6.442-9.411 6.442zm.09-17.992c-3.813 0-7.208 2.809-7.896 6.533-.746 4.036 1.758 8.063 5.7 9.169.684.192 1.393.289 2.105.289h.001c3.34 0 6.37-2.07 7.541-5.152.344-.906.519-1.862.519-2.84 0-4.093-3.188-7.592-7.258-7.966-.238-.022-.475-.033-.712-.033z"/><path d="m42.018 52.976c-.001 0-.001 0 0 0-2.702 0-5.285-.962-7.274-2.708-3.781-3.322-4.822-8.958-2.475-13.4 1.882-3.561 5.724-5.861 9.788-5.861.888 0 1.772.109 2.629.324 4.817 1.209 8.314 5.696 8.314 10.669 0 3.56-1.735 6.916-4.644 8.978-1.842 1.307-4.035 1.998-6.338 1.998zm.039-19.97c-3.332 0-6.48 1.882-8.021 4.795-1.92 3.634-1.067 8.245 2.027 10.963 1.624 1.426 3.738 2.211 5.953 2.211h.001c1.887 0 3.679-.563 5.183-1.629 2.379-1.687 3.8-4.433 3.8-7.346 0-4.069-2.86-7.741-6.801-8.73-.698-.175-1.419-.264-2.142-.264z"/><path d="m37.982 33.842c-.196 0-.396-.058-.569-.178-.952-.661-1.988-1.191-3.079-1.577-.521-.184-.794-.755-.609-1.276.184-.521.754-.795 1.275-.61 1.259.445 2.454 1.057 3.554 1.819.453.315.566.938.251 1.392-.195.28-.506.43-.823.43z"/></g></svg>